# xmcd
#
# Track frame offsets: 
#        150
#        16301
#        33854
#        54243
#        76144
#        95068
#        114834
#        132526
#        154277
#        169794
#        188482
#        207205
#        225876
#
# Disc length: 3188 seconds
#
# Revision: 0
# Processed by: cddbd v1.5.2PL0 Copyright (c) Steve Scherf et al.
# Submitted via: ExactAudioCopy v0.99pb1
#
DISCID=940c720d
DTITLE=Theresa James and The Rhythm Tramps - The Bottom Line
DYEAR=2007
DGENRE=Blues
TTITLE0=All Time Low
TTITLE1=Put The Squeeze On Me
TTITLE2=If Momma Don't Dig It
TTITLE3=Whet My Appetite
TTITLE4=Don't Make A Habit Of It
TTITLE5=I Know Handsome When I See It
TTITLE6=eieio
TTITLE7=The Bottom Line
TTITLE8=Next Big Thang
TTITLE9=How Am I Gonna Stop Loving You
TTITLE10=In The Pink
TTITLE11=I Call You Bluff
TTITLE12=I Do My Drinkin' On The Weekend
EXTD=
EXTT0=
EXTT1=
EXTT2=
EXTT3=
EXTT4=
EXTT5=
EXTT6=
EXTT7=
EXTT8=
EXTT9=
EXTT10=
EXTT11=
EXTT12=
PLAYORDER=
